<svg xmlns="http://www.w3.org/2000/svg" width="1900" height="1400" viewBox="0 0 1900 1400">
<defs><marker id="a" markerWidth="10" markerHeight="8" refX="9" refY="4" orient="auto"><path d="M0 0L10 4L0 8Z" fill="#52606d"/></marker><style>
text{font-family:Arial,sans-serif}.t{font-size:30px;font-weight:700;fill:#102a43}.h{font-size:17px;font-weight:700}.s{font-size:12px}.b{rx:14;ry:14;stroke-width:2}.actor{fill:#fff3cd;stroke:#b7791f}.ext{fill:#d9eaf7;stroke:#4a90c2}.run{fill:#438dd5;stroke:#1168bd}.data{fill:#e8f5e9;stroke:#4c8c4a}.ctrl{fill:#7e57c2;stroke:#5e35b1}.infra{fill:#607d8b;stroke:#455a64}.w{fill:#fff}.dark{fill:#102a43}.edge{fill:none;stroke:#52606d;stroke-width:2;marker-end:url(#a)}.edge2{fill:none;stroke:#2f6f9f;stroke-width:2.5;marker-end:url(#a)}.dash{fill:none;stroke:#7e57c2;stroke-width:2;stroke-dasharray:8 6}
</style></defs>
<rect width="1900" height="1400" fill="#fff"/><text x="950" y="52" text-anchor="middle" class="t">C4 — Container Diagram — Enterprise AI Platform</text>
<rect x="280" y="210" width="1340" height="1060" rx="22" fill="none" stroke="#1168bd" stroke-width="3"/><text x="310" y="195" class="h" fill="#1168bd">Enterprise AI Platform</text>
<rect x="305" y="275" width="1290" height="575" rx="18" fill="#f7fbff" stroke="#4a90c2" stroke-width="2" stroke-dasharray="9 7"/><text x="330" y="305" class="h" fill="#4a90c2">Data plane</text>
<rect x="305" y="900" width="1290" height="325" rx="18" fill="#fbf8ff" stroke="#7e57c2" stroke-width="2" stroke-dasharray="9 7"/><text x="330" y="930" class="h" fill="#7e57c2">Control plane e fundação operacional</text>
<rect x="25" y="250" width="220" height="100" class="b actor"/><text x="135" y="292" text-anchor="middle" class="h dark">Cliente / Colaborador</text><text x="135" y="318" text-anchor="middle" class="s dark">Consome capacidades de IA</text>
<rect x="25" y="430" width="220" height="115" class="b ext"/><text x="135" y="475" text-anchor="middle" class="h dark">Canais digitais</text><text x="135" y="503" text-anchor="middle" class="s dark">Web, mobile, WhatsApp e APIs</text>
<rect x="430" y="75" width="390" height="105" class="b actor"/><text x="625" y="118" text-anchor="middle" class="h dark">Squads e equipe de plataforma</text><text x="625" y="145" text-anchor="middle" class="s dark">Publicam agentes, datasets, políticas e budgets</text>
<rect x="1090" y="75" width="440" height="105" class="b actor"/><text x="1310" y="112" text-anchor="middle" class="h dark">Arquitetura, Segurança, Risco, Jurídico e LGPD</text><text x="1310" y="140" text-anchor="middle" class="s dark">Analisam, aprovam e auditam o ciclo de vida</text>
<rect x="1660" y="280" width="215" height="105" class="b ext"/><text x="1767" y="320" text-anchor="middle" class="h dark">Identity Provider</text><text x="1767" y="347" text-anchor="middle" class="s dark">OIDC / OAuth 2.0</text>
<rect x="1660" y="455" width="215" height="105" class="b ext"/><text x="1767" y="495" text-anchor="middle" class="h dark">Model providers</text><text x="1767" y="522" text-anchor="middle" class="s dark">LLMs e embeddings</text>
<rect x="1660" y="650" width="215" height="105" class="b ext"/><text x="1767" y="690" text-anchor="middle" class="h dark">Sistemas corporativos</text><text x="1767" y="717" text-anchor="middle" class="s dark">Core, CRM, BPM e APIs</text>
<rect x="1660" y="825" width="215" height="105" class="b ext"/><text x="1767" y="865" text-anchor="middle" class="h dark">Fontes corporativas</text><text x="1767" y="892" text-anchor="middle" class="s dark">Data lake, bancos e docs</text>
<rect x="1660" y="1035" width="215" height="105" class="b ext"/><text x="1767" y="1075" text-anchor="middle" class="h dark">Observabilidade</text><text x="1767" y="1102" text-anchor="middle" class="s dark">Logs, métricas e traces</text>
<rect x="345" y="345" width="235" height="115" class="b run"/><text x="462" y="390" text-anchor="middle" class="h w">Channel BFF</text><text x="462" y="418" text-anchor="middle" class="s w">REST / GraphQL</text>
<rect x="625" y="345" width="235" height="115" class="b run"/><text x="742" y="390" text-anchor="middle" class="h w">Agent Gateway</text><text x="742" y="418" text-anchor="middle" class="s w">Auth, rate limit e roteamento</text>
<rect x="905" y="335" width="270" height="135" class="b run"/><text x="1040" y="385" text-anchor="middle" class="h w">Agent Runtime</text><text x="1040" y="414" text-anchor="middle" class="s w">Orquestra agentes, contexto,</text><text x="1040" y="432" text-anchor="middle" class="s w">memória e ferramentas</text>
<rect x="1220" y="345" width="235" height="115" class="b run"/><text x="1337" y="390" text-anchor="middle" class="h w">Model Gateway</text><text x="1337" y="418" text-anchor="middle" class="s w">Guardrails, quota e fallback</text>
<rect x="345" y="570" width="235" height="115" class="b run"/><text x="462" y="615" text-anchor="middle" class="h w">Knowledge Service</text><text x="462" y="643" text-anchor="middle" class="s w">Ingestão e retrieval</text>
<rect x="625" y="570" width="235" height="115" class="b data"/><text x="742" y="615" text-anchor="middle" class="h dark">Knowledge Index</text><text x="742" y="643" text-anchor="middle" class="s dark">Object + vector / hybrid</text>
<rect x="905" y="570" width="235" height="115" class="b run"/><text x="1022" y="615" text-anchor="middle" class="h w">Memory Service</text><text x="1022" y="643" text-anchor="middle" class="s w">Sessão, perfil, TTL e consentimento</text>
<rect x="1185" y="570" width="235" height="115" class="b data"/><text x="1302" y="615" text-anchor="middle" class="h dark">Memory Store</text><text x="1302" y="643" text-anchor="middle" class="s dark">Redis + database</text>
<rect x="480" y="725" width="260" height="100" class="b run"/><text x="610" y="765" text-anchor="middle" class="h w">MCP Tool Services</text><text x="610" y="792" text-anchor="middle" class="s w">Contratos, idempotência e auditoria</text>
<rect x="1005" y="725" width="260" height="100" class="b ctrl"/><text x="1135" y="765" text-anchor="middle" class="h w">Policy Decision Point</text><text x="1135" y="792" text-anchor="middle" class="s w">OPA / policy engine</text>
<rect x="345" y="975" width="235" height="105" class="b ctrl"/><text x="462" y="1017" text-anchor="middle" class="h w">AI Catalog &amp; Registry</text><text x="462" y="1045" text-anchor="middle" class="s w">Versões, owners e contratos</text>
<rect x="625" y="975" width="235" height="105" class="b data"/><text x="742" y="1017" text-anchor="middle" class="h dark">Metadata Store</text><text x="742" y="1045" text-anchor="middle" class="s dark">PostgreSQL / document DB</text>
<rect x="905" y="975" width="235" height="105" class="b ctrl"/><text x="1022" y="1017" text-anchor="middle" class="h w">Governance Service</text><text x="1022" y="1045" text-anchor="middle" class="s w">Workflow e evidências</text>
<rect x="1185" y="975" width="235" height="105" class="b run"/><text x="1302" y="1017" text-anchor="middle" class="h w">Evaluation Service</text><text x="1302" y="1045" text-anchor="middle" class="s w">Qualidade, segurança e gates</text>
<rect x="480" y="1120" width="260" height="80" class="b infra"/><text x="610" y="1168" text-anchor="middle" class="h w">Event Backbone</text>
<rect x="1005" y="1120" width="260" height="80" class="b infra"/><text x="1135" y="1168" text-anchor="middle" class="h w">Telemetry Collector</text>
<path d="M135 350V430M245 487L345 405M580 402H625M860 402H905M1175 402H1220M1455 402H1595V507H1660" class="edge2"/>
<path d="M742 345V245H1595V332H1660" class="edge"/><path d="M1040 470V520H462V570M580 627H625M860 627H905M1140 627H1185" class="edge"/>
<path d="M1040 470V705H610V725M740 775H1660V702" class="edge2"/><path d="M1040 470V700H1135V725" class="edge"/>
<path d="M625 180V900H462V975M1310 180V900H1022V975" class="edge"/><path d="M580 1027H625M860 1027H905M1140 1027H1185" class="edge"/>
<path d="M1302 1080V1120H610M1040 470V1090H1135V1120M1265 1160H1595V1087H1660" class="edge"/>
<path d="M462 570V545H1595V877H1660" class="edge"/>
<text x="950" y="1345" text-anchor="middle" class="s" fill="#6b7c93">Relações principais; protocolos e responsabilidades detalhados na documentação.</text>
</svg>
